<svg width="1465" height="190" viewBox="0 0 1465 190" fill="none" xmlns="http://www.w3.org/2000/svg">
<path d="M195 118H521.5L564 162" stroke="white" stroke-width="5"/>
<path d="M1272 118H945.5L903 161" stroke="white" stroke-width="5"/>
<circle cx="569.5" cy="167.5" r="7" stroke="white" stroke-width="7"/>
<circle cx="896.5" cy="167.5" r="7" stroke="white" stroke-width="7"/>
<circle cx="760.5" cy="150.5" r="7" stroke="white" stroke-width="7"/>
<circle cx="704.5" cy="150.5" r="7" stroke="white" stroke-width="7"/>
<circle cx="1276.5" cy="117.5" r="7" stroke="white" stroke-width="7"/>
<circle cx="189.5" cy="117.5" r="7" stroke="white" stroke-width="7"/>
<circle cx="61.5" cy="88.5" r="7" stroke="#CA0009" stroke-width="7"/>
<circle cx="10.5" cy="38.5" r="7" stroke="#CA0009" stroke-width="7"/>
<circle cx="10.5" cy="12.5" r="7" stroke="white" stroke-width="7"/>
<circle cx="538.5" cy="69.5" r="7" stroke="white" stroke-width="7"/>
<circle cx="604.5" cy="135.5" r="7" stroke="#CA0009" stroke-width="7"/>
<circle cx="859.5" cy="135.5" r="7" stroke="#CA0009" stroke-width="7"/>
<circle cx="1399.5" cy="88.5" r="7" stroke="#CA0009" stroke-width="7"/>
<circle cx="1454.5" cy="38.5" r="7" stroke="#CA0009" stroke-width="7"/>
<circle cx="1454.5" cy="10.5" r="7" stroke="white" stroke-width="7"/>
<circle cx="926.5" cy="68.5" r="7" stroke="white" stroke-width="7"/>
<path d="M130 89H609L707.5 187.5M130 89H67M130 89L80.5 39.5H16M707.5 187.5H754.5M707.5 187.5L609 139M754.5 187.5L853 89H1332.5M754.5 187.5L853 139M1332.5 89H1395M1332.5 89L1382.5 39H1447.5" stroke="#CA0009" stroke-width="5"/>
<path d="M146.5 68.5L90.5 12.5H20" stroke="white" stroke-width="5"/>
<path d="M674.5 125L618.5 69H548" stroke="white" stroke-width="5"/>
<path d="M1318 67L1374 11H1444.5" stroke="white" stroke-width="5"/>
<path d="M790 125L846 69H916.5" stroke="white" stroke-width="5"/>
<path d="M712 150.5H752" stroke="white" stroke-width="5"/>
</svg>
