<svg width="1465" height="190" fill="none" xmlns="http://www.w3.org/2000/svg"><path d="M195 118h326.5l42.5 44m708-44H945.5L903 161" stroke="#fff" stroke-width="5"/><circle cx="569.5" cy="167.5" r="7" stroke="#fff" stroke-width="7"/><circle cx="896.5" cy="167.5" r="7" stroke="#fff" stroke-width="7"/><circle cx="760.5" cy="150.5" r="7" stroke="#fff" stroke-width="7"/><circle cx="704.5" cy="150.5" r="7" stroke="#fff" stroke-width="7"/><circle cx="1276.5" cy="117.5" r="7" stroke="#fff" stroke-width="7"/><circle cx="189.5" cy="117.5" r="7" stroke="#fff" stroke-width="7"/><circle cx="61.5" cy="88.5" r="7" stroke="#CA0009" stroke-width="7"/><circle cx="10.5" cy="38.5" r="7" stroke="#CA0009" stroke-width="7"/><circle cx="10.5" cy="12.5" r="7" stroke="#fff" stroke-width="7"/><circle cx="538.5" cy="69.5" r="7" stroke="#fff" stroke-width="7"/><circle cx="604.5" cy="135.5" r="7" stroke="#CA0009" stroke-width="7"/><circle cx="859.5" cy="135.5" r="7" stroke="#CA0009" stroke-width="7"/><circle cx="1399.5" cy="88.5" r="7" stroke="#CA0009" stroke-width="7"/><circle cx="1454.5" cy="38.5" r="7" stroke="#CA0009" stroke-width="7"/><circle cx="1454.5" cy="10.5" r="7" stroke="#fff" stroke-width="7"/><circle cx="926.5" cy="68.5" r="7" stroke="#fff" stroke-width="7"/><path d="M130 89h479l98.5 98.5M130 89H67m63 0L80.5 39.5H16m691.5 148h47m-47 0L609 139m145.5 48.5L853 89h479.5m-578 98.5L853 139m479.5-50h62.5m-62.5 0l50-50h65" stroke="#CA0009" stroke-width="5"/><path d="M146.5 68.5l-56-56H20M674.5 125l-56-56H548m770-2l56-56h70.5M790 125l56-56h70.5M712 150.5h40" stroke="#fff" stroke-width="5"/></svg>