<svg width="42" height="41" viewBox="0 0 42 41" fill="none" xmlns="http://www.w3.org/2000/svg">
<rect y="0.75" width="42" height="40" fill="white"/>
<path fill-rule="evenodd" clip-rule="evenodd" d="M15.8048 8.822C17.1484 8.76309 17.5768 8.75 20.9994 8.75C24.422 8.75 24.8504 8.76418 26.1929 8.822C27.5354 8.87982 28.4517 9.08382 29.2536 9.37945C30.0932 9.68164 30.8549 10.154 31.4849 10.7649C32.1264 11.3638 32.6212 12.0882 32.9373 12.8889C33.2489 13.6525 33.462 14.5253 33.5238 15.8016C33.5857 17.0835 33.5994 17.4915 33.5994 20.75C33.5994 24.0096 33.5845 24.4176 33.5238 25.6973C33.4631 26.9736 33.2489 27.8464 32.9373 28.61C32.6212 29.4108 32.1255 30.1364 31.4849 30.7362C30.8549 31.3471 30.0932 31.8184 29.2536 32.1195C28.4517 32.4162 27.5354 32.6191 26.1952 32.678C24.8504 32.7369 24.422 32.75 20.9994 32.75C17.5768 32.75 17.1484 32.7358 15.8048 32.678C14.4646 32.6202 13.5482 32.4162 12.7464 32.1195C11.9056 31.8183 11.1437 31.3463 10.5139 30.7362C9.8729 30.1369 9.37685 29.4117 9.06034 28.6111C8.74992 27.8475 8.53687 26.9747 8.47501 25.6984C8.41316 24.4165 8.39941 24.0085 8.39941 20.75C8.39941 17.4904 8.4143 17.0824 8.47501 15.8038C8.53572 14.5253 8.74992 13.6525 9.06034 12.8889C9.37731 12.0883 9.87375 11.3631 10.5151 10.7638C11.144 10.1535 11.905 9.68103 12.7453 9.37945C13.5471 9.08382 14.4635 8.88091 15.8036 8.822H15.8048ZM26.091 10.982C24.7622 10.9242 24.3636 10.9122 20.9994 10.9122C17.6352 10.9122 17.2366 10.9242 15.9079 10.982C14.6788 11.0355 14.0121 11.2307 13.5677 11.3955C12.9801 11.6136 12.5597 11.8722 12.1187 12.2922C11.7007 12.6795 11.3789 13.151 11.1771 13.6722C11.0042 14.0955 10.7991 14.7304 10.743 15.9009C10.6823 17.1664 10.6697 17.546 10.6697 20.75C10.6697 23.954 10.6823 24.3336 10.743 25.5991C10.7991 26.7696 11.0042 27.4045 11.1771 27.8278C11.3787 28.3482 11.7006 28.8205 12.1187 29.2078C12.5253 29.606 13.0213 29.9125 13.5677 30.1045C14.0121 30.2693 14.6788 30.4645 15.9079 30.518C17.2366 30.5758 17.6341 30.5878 20.9994 30.5878C24.3648 30.5878 24.7622 30.5758 26.091 30.518C27.32 30.4645 27.9867 30.2693 28.4311 30.1045C29.0187 29.8864 29.4391 29.6278 29.8801 29.2078C30.2982 28.8205 30.6201 28.3482 30.8217 27.8278C30.9947 27.4045 31.1997 26.7696 31.2558 25.5991C31.3165 24.3336 31.3291 23.954 31.3291 20.75C31.3291 17.546 31.3165 17.1664 31.2558 15.9009C31.1997 14.7304 30.9947 14.0955 30.8217 13.6722C30.5926 13.1125 30.3211 12.7122 29.8801 12.2922C29.4734 11.8941 28.9783 11.5877 28.4311 11.3955C27.9867 11.2307 27.32 11.0355 26.091 10.982ZM19.3901 24.4493C20.2888 24.8056 21.2896 24.8537 22.2215 24.5853C23.1534 24.317 23.9586 23.7488 24.4995 22.9779C25.0404 22.207 25.2835 21.2811 25.1873 20.3585C25.091 19.4358 24.6614 18.5736 23.9719 17.9191C23.5323 17.5007 23.0008 17.1803 22.4156 16.9811C21.8304 16.7818 21.2061 16.7086 20.5876 16.7667C19.9691 16.8248 19.3719 17.0127 18.8389 17.3171C18.3058 17.6214 17.8503 18.0344 17.505 18.5266C17.1597 19.0187 16.9333 19.5776 16.842 20.163C16.7507 20.7485 16.7969 21.346 16.9772 21.9124C17.1575 22.4788 17.4674 23.0001 17.8846 23.4388C18.3018 23.8775 18.816 24.2226 19.3901 24.4493ZM16.4199 16.3885C17.0213 15.8158 17.7352 15.3615 18.521 15.0515C19.3067 14.7415 20.1489 14.582 20.9994 14.582C21.8499 14.582 22.6921 14.7415 23.4778 15.0515C24.2636 15.3615 24.9775 15.8158 25.5789 16.3885C26.1803 16.9613 26.6574 17.6413 26.9829 18.3896C27.3083 19.1379 27.4758 19.94 27.4758 20.75C27.4758 21.56 27.3083 22.3621 26.9829 23.1104C26.6574 23.8587 26.1803 24.5387 25.5789 25.1115C24.3644 26.2682 22.7171 26.918 20.9994 26.918C19.2818 26.918 17.6345 26.2682 16.4199 25.1115C15.2053 23.9547 14.523 22.3859 14.523 20.75C14.523 19.1141 15.2053 17.5453 16.4199 16.3885ZM28.9122 15.5005C29.0612 15.3667 29.1805 15.2057 29.2631 15.0271C29.3456 14.8485 29.3897 14.6559 29.3926 14.4608C29.3956 14.2657 29.3575 14.0721 29.2805 13.8912C29.2034 13.7104 29.0891 13.5462 28.9442 13.4082C28.7994 13.2703 28.6269 13.1614 28.4371 13.088C28.2472 13.0147 28.0439 12.9783 27.839 12.9812C27.6342 12.984 27.432 13.026 27.2445 13.1046C27.0569 13.1832 26.8879 13.2968 26.7473 13.4387C26.4739 13.7148 26.3242 14.0814 26.33 14.4608C26.3358 14.8403 26.4967 15.2026 26.7784 15.4709C27.0602 15.7392 27.4406 15.8924 27.839 15.898C28.2374 15.9035 28.6224 15.7609 28.9122 15.5005Z" fill="#CA0009"/>
</svg>
