<svg width="42" height="41" viewBox="0 0 42 41" fill="none" xmlns="http://www.w3.org/2000/svg">
<rect y="0.75" width="42" height="40" fill="#CA0009"/>
<path fill-rule="evenodd" clip-rule="evenodd" d="M29.9282 12.2382C28.7658 11.1292 27.3828 10.2499 25.8594 9.6511C24.3359 9.05233 22.7022 8.74607 21.053 8.75004C14.1373 8.75004 8.50752 14.085 8.50473 20.6427C8.50473 22.7385 9.08196 24.784 10.1791 26.5884L8.3999 32.75L15.0514 31.0953C16.8913 32.0447 18.9526 32.5425 21.0474 32.5433H21.053C27.9673 32.5433 33.5971 27.2084 33.5999 20.6507C33.6046 19.088 33.2826 17.54 32.6523 16.0961C32.0221 14.6522 31.0962 13.3409 29.9282 12.2382ZM21.053 30.5363H21.0488C19.1808 30.5365 17.3473 30.0601 15.7405 29.1572L15.3603 28.9425L11.4133 29.9242L12.4657 26.2771L12.2183 25.9035C11.174 24.3275 10.6211 22.5038 10.6236 20.6427C10.6264 15.1925 15.3044 10.7584 21.0572 10.7584C22.4272 10.7555 23.7843 11.0102 25.0498 11.5078C26.3154 12.0053 27.4642 12.7359 28.4299 13.6571C29.4007 14.5739 30.1702 15.664 30.6939 16.8644C31.2176 18.0648 31.4851 19.3517 31.481 20.6507C31.4782 26.1009 26.8002 30.5363 21.053 30.5363ZM26.7736 23.132C26.4592 22.9823 24.9189 22.2643 24.631 22.1649C24.3445 22.0655 24.1362 22.0165 23.9266 22.3133C23.7169 22.61 23.1159 23.279 22.9328 23.4778C22.7498 23.6765 22.5667 23.7003 22.2536 23.552C21.9405 23.4036 20.93 23.0896 19.7322 22.0775C18.7999 21.2892 18.171 20.3168 17.9879 20.0187C17.8048 19.7207 17.9683 19.5604 18.1263 19.412C18.2674 19.2795 18.4393 19.0649 18.5959 18.8913C18.7524 18.7178 18.8041 18.5946 18.909 18.3959C19.0138 18.1971 18.9621 18.0236 18.8824 17.8752C18.8041 17.7255 18.1766 16.2629 17.9152 15.6681C17.6622 15.0918 17.4037 15.1687 17.2108 15.1607C17.011 15.153 16.8111 15.1494 16.6112 15.1501C16.4522 15.154 16.2958 15.1889 16.1517 15.2527C16.0077 15.3166 15.8791 15.4079 15.774 15.5211C15.4861 15.8191 14.6768 16.5372 14.6768 17.9997C14.6768 19.4623 15.8006 20.8759 15.9571 21.0746C16.1136 21.2733 18.1682 24.274 21.313 25.5617C22.0621 25.8677 22.6463 26.0505 23.1006 26.1883C23.8511 26.4148 24.5346 26.3817 25.0755 26.3062C25.6779 26.2214 26.9302 25.5882 27.1915 24.894C27.4529 24.1998 27.4529 23.6049 27.3746 23.4804C27.2964 23.3559 27.0853 23.2804 26.7736 23.132Z" fill="white"/>
</svg>
