<svg width="42" height="41" fill="none" xmlns="http://www.w3.org/2000/svg"><path fill="#CA0009" d="M0 .75h42v40H0z"/><path fill-rule="evenodd" clip-rule="evenodd" d="M29.928 12.238a12.531 12.531 0 00-4.069-2.587 13.064 13.064 0 00-4.806-.901c-6.916 0-12.545 5.335-12.548 11.893 0 2.095.577 4.141 1.674 5.945L8.4 32.75l6.652-1.655a13.1 13.1 0 005.996 1.448h.006c6.914 0 12.544-5.335 12.547-11.892a11.29 11.29 0 00-.948-4.555 11.806 11.806 0 00-2.724-3.858zm-8.875 18.298h-.004c-1.868 0-3.702-.476-5.308-1.379l-.38-.215-3.948.982 1.053-3.647-.248-.373a9.491 9.491 0 01-1.594-5.261c.002-5.45 4.68-9.885 10.433-9.885 1.37-.002 2.727.252 3.993.75a10.413 10.413 0 013.38 2.15 9.814 9.814 0 012.264 3.206c.524 1.2.791 2.488.787 3.787-.003 5.45-4.68 9.885-10.428 9.885zm5.72-7.404c-.314-.15-1.854-.868-2.142-.967-.287-.1-.495-.148-.704.148-.21.297-.811.966-.994 1.165-.183.198-.366.222-.68.074-.313-.148-1.323-.462-2.52-1.474-.933-.789-1.562-1.761-1.745-2.06-.183-.297-.02-.458.138-.606.141-.133.313-.347.47-.52.156-.174.208-.297.313-.496.105-.199.053-.372-.027-.52-.078-.15-.705-1.613-.967-2.208-.253-.576-.511-.5-.704-.507-.2-.008-.4-.012-.6-.01a1.209 1.209 0 00-.46.102 1.153 1.153 0 00-.377.268c-.288.298-1.097 1.016-1.097 2.479 0 1.462 1.124 2.876 1.28 3.075.157.198 2.211 3.199 5.356 4.487.75.306 1.333.488 1.788.626.75.227 1.434.194 1.975.118.602-.085 1.854-.718 2.116-1.412.26-.694.26-1.29.183-1.414-.079-.124-.29-.2-.601-.348z" fill="#fff"/></svg>