<svg width="42" height="41" fill="none" xmlns="http://www.w3.org/2000/svg"><path fill="#CA0009" d="M0 .75h42v40H0z"/><path fill-rule="evenodd" clip-rule="evenodd" d="M32.99 13.833c.184-.624 0-1.083-.881-1.083h-2.91c-.74 0-1.081.397-1.266.834 0 0-1.48 3.653-3.576 6.025-.678.688-.986.907-1.356.907-.185 0-.464-.219-.464-.844v-5.839c0-.75-.203-1.083-.82-1.083h-4.575c-.462 0-.74.347-.74.678 0 .71 1.048.874 1.156 2.872v4.34c0 .952-.17 1.125-.54 1.125-.986 0-3.386-3.67-4.81-7.869-.276-.817-.555-1.146-1.299-1.146H7.997c-.83 0-.997.397-.997.834 0 .78.986 4.652 4.594 9.773 2.405 3.497 5.79 5.393 8.875 5.393 1.85 0 2.078-.42 2.078-1.146V24.96c0-.842.175-1.01.762-1.01.432 0 1.171.22 2.898 1.905 1.973 1.999 2.297 2.895 3.408 2.895h2.91c.83 0 1.247-.42 1.008-1.253-.264-.827-1.206-2.028-2.455-3.453-.678-.812-1.696-1.686-2.005-2.124-.431-.56-.308-.811 0-1.31 0 0 3.547-5.059 3.916-6.777z" fill="#fff"/></svg>