<svg width="42" height="41" viewBox="0 0 42 41" fill="none" xmlns="http://www.w3.org/2000/svg">
<rect y="0.75" width="42" height="40" fill="#CA0009"/>
<path fill-rule="evenodd" clip-rule="evenodd" d="M32.9899 13.8334C33.1739 13.2094 32.9899 12.75 32.1088 12.75H29.1995C28.4591 12.75 28.1177 13.1466 27.9327 13.5843C27.9327 13.5843 26.4531 17.2369 24.3572 19.6094C23.679 20.2974 23.3708 20.5157 23.0007 20.5157C22.8156 20.5157 22.5374 20.2974 22.5374 19.6723V13.8334C22.5374 13.0837 22.3335 12.75 21.7173 12.75H17.1421C16.68 12.75 16.4018 13.0974 16.4018 13.4277C16.4018 14.1374 17.4503 14.302 17.5578 16.2997V20.6403C17.5578 21.5923 17.3882 21.7649 17.018 21.7649C16.0316 21.7649 13.6321 18.0951 12.2079 13.8963C11.932 13.0791 11.6527 12.75 10.909 12.75H7.99748C7.16625 12.75 7 13.1466 7 13.5843C7 14.3637 7.9864 18.2357 11.5939 23.3569C13.999 26.854 17.3849 28.75 20.4693 28.75C22.3191 28.75 22.5474 28.3294 22.5474 27.6037V24.9603C22.5474 24.118 22.7225 23.95 23.3088 23.95C23.741 23.95 24.4803 24.1694 26.207 25.8551C28.1798 27.854 28.5045 28.75 29.6151 28.75H32.5244C33.3556 28.75 33.7723 28.3294 33.5329 27.4974C33.2692 26.67 32.3271 25.4689 31.078 24.0437C30.3998 23.2323 29.3823 22.358 29.0731 21.9203C28.642 21.3591 28.765 21.1089 29.0731 20.6094C29.0731 20.6094 32.6197 15.5511 32.9888 13.8334H32.9899Z" fill="white"/>
</svg>
