<svg width="42" height="41" fill="none" xmlns="http://www.w3.org/2000/svg"><path fill="#fff" d="M0 .75h42v40H0z"/><path fill-rule="evenodd" clip-rule="evenodd" d="M15.805 8.822c1.343-.059 1.772-.072 5.194-.072 3.423 0 3.851.014 5.194.072 1.342.058 2.259.262 3.06.557.84.303 1.602.775 2.232 1.386a5.841 5.841 0 011.452 2.124c.312.764.525 1.636.587 2.913.062 1.282.075 1.69.075 4.948 0 3.26-.014 3.668-.075 4.947-.06 1.277-.275 2.15-.587 2.913a5.867 5.867 0 01-1.452 2.126 6.217 6.217 0 01-2.231 1.384c-.802.296-1.719.5-3.059.558-1.345.059-1.773.072-5.196.072-3.422 0-3.85-.014-5.194-.072-1.34-.058-2.257-.262-3.059-.558a6.222 6.222 0 01-2.232-1.384 5.864 5.864 0 01-1.454-2.125c-.31-.764-.523-1.636-.585-2.913-.062-1.282-.076-1.69-.076-4.948 0-3.26.015-3.668.076-4.946.06-1.279.275-2.152.585-2.915.317-.8.814-1.526 1.455-2.125a6.214 6.214 0 012.23-1.385c.802-.295 1.719-.498 3.059-.557zm10.286 2.16c-1.329-.058-1.727-.07-5.092-.07-3.364 0-3.762.012-5.091.07-1.23.054-1.896.249-2.34.414a3.936 3.936 0 00-1.45.896 3.71 3.71 0 00-.94 1.38c-.174.423-.379 1.058-.435 2.229-.06 1.265-.073 1.645-.073 4.849s.012 3.584.073 4.85c.056 1.17.261 1.804.434 2.228.202.52.524.992.942 1.38.406.398.902.705 1.449.897.444.164 1.11.36 2.34.413 1.329.058 1.726.07 5.091.07 3.366 0 3.763-.012 5.092-.07 1.229-.053 1.896-.249 2.34-.413a3.936 3.936 0 001.45-.897c.417-.387.74-.86.94-1.38.174-.424.379-1.058.435-2.229.06-1.265.073-1.645.073-4.849s-.012-3.584-.073-4.85c-.056-1.17-.261-1.805-.434-2.228-.23-.56-.5-.96-.942-1.38a3.933 3.933 0 00-1.449-.896c-.444-.165-1.111-.36-2.34-.414zm-6.7 13.467a4.386 4.386 0 002.83.136 4.192 4.192 0 002.279-1.607c.54-.771.784-1.697.687-2.62a3.928 3.928 0 00-1.215-2.439 4.236 4.236 0 00-1.556-.938 4.4 4.4 0 00-3.577.336 4.123 4.123 0 00-1.334 1.21 3.893 3.893 0 00-.663 1.636 3.82 3.82 0 00.135 1.75c.18.566.49 1.087.908 1.526.417.439.931.784 1.505 1.01zm-2.971-8.06a6.508 6.508 0 012.101-1.337 6.758 6.758 0 012.478-.47c.85 0 1.693.16 2.479.47.786.31 1.5.764 2.1 1.337a6.159 6.159 0 011.405 2c.325.749.493 1.551.493 2.361 0 .81-.168 1.612-.493 2.36a6.159 6.159 0 01-1.404 2.002 6.649 6.649 0 01-4.58 1.806 6.652 6.652 0 01-4.58-1.806c-1.214-1.157-1.896-2.726-1.896-4.362 0-1.636.682-3.205 1.897-4.361zm12.492-.888c.15-.134.268-.295.351-.474a1.4 1.4 0 00.017-1.136 1.457 1.457 0 00-.336-.483 1.54 1.54 0 00-.507-.32 1.6 1.6 0 00-1.193.017 1.534 1.534 0 00-.497.334 1.421 1.421 0 00-.417 1.022c.006.38.167.742.448 1.01a1.57 1.57 0 001.061.427 1.58 1.58 0 001.073-.397z" fill="#CA0009"/></svg>