<svg width="163" height="192" viewBox="0 0 163 192" fill="none" xmlns="http://www.w3.org/2000/svg">
<line x1="161.5" y1="5" x2="161.5" y2="187" stroke="white" stroke-width="3"/>
<line x1="161.5" y1="139" x2="161.5" y2="187" stroke="#8F8F8F" stroke-width="3"/>
<path d="M-9 192C44.0193 192 87 149.019 87 96C87 42.9807 44.0193 0 -9 0V192Z" fill="#CA0009"/>
<path d="M15.5 121.8V76.2L27.7 64H59.3L71.5 76.2V121.8L59.3 134H27.7L15.5 121.8ZM32.3 79.2V118.8H54.7V79.2H32.3ZM134.539 78.6H97.3391V90L134.539 93.3V121.8L122.339 134H80.9391V119.4H117.739V105.3L80.5391 102.1V64H134.539V78.6Z" fill="white"/>
</svg>
