<svg width="163" height="192" fill="none" xmlns="http://www.w3.org/2000/svg"><path stroke="#fff" stroke-width="3" d="M161.5 5v182"/><path stroke="#8F8F8F" stroke-width="3" d="M161.5 139v48"/><path d="M-9 192c53.02 0 96-42.981 96-96C87 42.98 44.02 0-9 0v192z" fill="#CA0009"/><path d="M15.5 121.8V76.2L27.7 64h31.6l12.2 12.2v45.6L59.3 134H27.7l-12.2-12.2zm16.8-42.6v39.6h22.4V79.2H32.3zm91.539 54.8h-44.8v-14h39.1v-15h-33.1V91.6h31.1V78h-36.1V64h41.8l11.6 11.6v16.9l-6.3 4.9 8.3 6.6v18.4l-11.6 11.6z" fill="#fff"/></svg>