<svg width="295" height="1046" viewBox="0 0 295 1046" fill="none" xmlns="http://www.w3.org/2000/svg">
<path d="M175.74 153.446H132.032L2 23.4142V2.65283H46.8009L154.979 110.831H175.74V153.446ZM175.74 153.446V197.154H196.501L263.156 130.499V88.9765H240.21L175.74 153.446ZM152.793 413.51L132.032 392.748H112.363V349.04H154.979L263.156 457.218V479.072H218.355L157.164 417.88M152.793 413.51H111.27V435.364L67.5623 479.072V522.78H91.6018L157.164 457.218V417.88M152.793 413.51L157.164 417.88M174.647 652.812V653.905M174.647 653.905V696.52H198.687L220.541 718.374H263.156V704.169M174.647 653.905H220.541L259.878 693.242M111.27 847.313H154.979V826.552L111.27 782.844H67.5623V825.459H89.4163L111.27 847.313ZM111.27 847.313H67.5623V891.021H90.509L111.27 911.783V934.73L89.4163 956.584M111.27 847.313L154.979 891.021V956.584L133.125 978.438M89.4163 956.584V1000.29H111.27L133.125 978.438M89.4163 956.584V911.783H46.8009V934.73L3.0927 978.438V1023.24L23.8541 1044H47.8936V998.106L89.4163 956.584ZM133.125 978.438V1021.05H154.979V978.438H133.125ZM8.55623 353.411H21.6687V364.338M21.6687 680.129V693.242H10.7416M34.7811 680.129V693.242H45.7082M45.7082 705.262H34.7811V717.281M270.805 680.129V693.242H262.064H259.878M259.878 693.242L263.156 696.52V704.169M283.918 680.129V693.242H294.845M263.156 704.169H270.805V715.096M283.918 752.248V741.321H294.845M270.805 1031.98V1044H259.878M283.918 1031.98V1044H294.845M283.918 364.338V354.504H294.845M132.032 23.4142V66.0297H154.979V23.4142H132.032ZM240.21 23.4142V66.0297H263.156V23.4142H240.21ZM68.655 197.154L132.032 260.531H175.74V219.008H154.979L112.363 176.393H68.655V197.154ZM175.74 327.186V282.385H200.872L222.726 260.531H263.156V282.385L218.355 327.186H175.74ZM154.979 282.385V327.186H132.032L45.7082 413.51H2V391.656L111.27 282.385H154.979ZM218.355 499.833V522.78L154.979 586.157H67.5623V632.051H177.925L263.156 546.82V499.833H218.355ZM132.032 499.833H154.979V546.82H132.032V499.833ZM154.979 696.52V652.812H111.27L3.0927 760.99V782.844H47.8936L134.217 696.52H154.979ZM111.27 741.321V760.99L154.979 804.698H198.687V760.99H174.647L154.979 741.321H111.27ZM241.302 760.99H263.156V804.698H241.302V760.99ZM220.541 825.459H263.156V871.353L199.779 934.73C193.587 935.822 180.548 937.352 177.925 934.73C175.303 932.107 176.833 904.498 177.925 891.021L220.541 848.406V825.459ZM241.302 978.438H263.156V1021.05H241.302V978.438Z" stroke="#CA0009" stroke-width="4"/>
<circle cx="243.488" cy="370.894" r="20.9468" stroke="#CA0009" stroke-width="4"/>
</svg>
