<svg width="295" height="1046" fill="none" xmlns="http://www.w3.org/2000/svg"><path d="M175.74 153.446h-43.708L2 23.414V2.653h44.8L154.98 110.83h20.761v42.615zm0 0v43.708h20.761l66.655-66.655V88.977H240.21l-64.47 64.469zM152.793 413.51l-20.761-20.762h-19.669V349.04h42.616l108.177 108.178v21.854h-44.801l-61.191-61.192m-4.371-4.37H111.27v21.854l-43.708 43.708v43.708h24.04l65.562-65.562V417.88m-4.371-4.37l4.371 4.37m17.483 234.932v1.093m0 0v42.615h24.04l21.854 21.854h42.615v-14.205m-88.509-50.264h45.894l39.337 39.337M111.27 847.313h43.709v-20.761l-43.709-43.708H67.562v42.615h21.854l21.854 21.854zm0 0H67.562v43.708H90.51l20.761 20.762v22.947l-21.854 21.854m21.854-109.271l43.709 43.708v65.563l-21.854 21.854m-43.709-21.854v43.706h21.854l21.855-21.852m-43.709-21.854v-44.801H46.801v22.947L3.093 978.438v44.802L23.854 1044h24.04v-45.894l41.522-41.522zm43.709 21.854v42.612h21.854v-42.612h-21.854zM8.556 353.411H21.67v10.927m0 315.791v13.113H10.742m24.04-13.113v13.113h10.926m0 12.02H34.781v12.019m236.024-37.152v13.113h-10.927m0 0l3.278 3.278v7.649m20.762-24.04v13.113h10.927m-31.689 10.927h7.649v10.927m13.113 37.152v-10.927h10.927m-24.04 290.659V1044h-10.927m24.04-12.02V1044h10.927m-10.927-679.662v-9.834h10.927M132.032 23.414V66.03h22.947V23.414h-22.947zm108.178 0V66.03h22.946V23.414H240.21zM68.655 197.154l63.377 63.377h43.708v-41.523h-20.761l-42.616-42.615H68.655v20.761zM175.74 327.186v-44.801h25.132l21.854-21.854h40.43v21.854l-44.801 44.801H175.74zm-20.761-44.801v44.801h-22.947L45.708 413.51H2v-21.854l109.27-109.271h43.709zm63.376 217.448v22.947l-63.376 63.377H67.562v45.894h110.363l85.231-85.231v-46.987h-44.801zm-86.323 0h22.947v46.987h-22.947v-46.987zm22.947 196.687v-43.708H111.27L3.093 760.99v21.854h44.8l86.324-86.324h20.762zm-43.709 44.801v19.669l43.709 43.708h43.708V760.99h-24.04l-19.668-19.669H111.27zm130.032 19.669h21.854v43.708h-21.854V760.99zm-20.761 64.469h42.615v45.894l-63.377 63.377c-6.192 1.092-19.231 2.622-21.854 0-2.622-2.623-1.092-30.232 0-43.709l42.616-42.615v-22.947zm20.761 152.979h21.854v42.612h-21.854v-42.612z" stroke="#CA0009" stroke-width="4"/><circle cx="243.488" cy="370.894" r="20.947" stroke="#CA0009" stroke-width="4"/></svg>